# xmcd
#
# Track frame offsets: 
#        150
#        19136
#        44260
#        68070
#        82107
#        97968
#        124643
#        140993
#        164216
#        185670
#        204427
#
# Disc length: 2964 seconds
#
# Revision: 0
# Processed by: cddbd v1.5.2PL0 Copyright (c) Steve Scherf et al.
# Submitted via: ExactAudioCopy v0.95b4
#
DISCID=a10b920b
DTITLE=Dave McGraw and Crow Wing - Coyotes Came Around
DYEAR=2009
DGENRE=Country
TTITLE0=Cat Creek
TTITLE1=Westmoreland
TTITLE2=Western Sky
TTITLE3=Bellingham
TTITLE4=Sing You My Way
TTITLE5=Blue
TTITLE6=Spirit That Is Wild
TTITLE7=Burn
TTITLE8=Confide
TTITLE9=Memory for a Dream
TTITLE10=North Lake Trail
EXTD=
EXTT0=
EXTT1=
EXTT2=
EXTT3=
EXTT4=
EXTT5=
EXTT6=
EXTT7=
EXTT8=
EXTT9=
EXTT10=
PLAYORDER=
